{"accessors" : [{"bufferView" : 0, "byteOffset" : 0, "componentType" : 5123, "count" : 15660, "type" : "SCALAR", "max" : [15659], "min" : [0]}, {"bufferView" : 1, "byteOffset" : 0, "componentType" : 5126, "count" : 15660, "type" : "VEC3", "max" : [21.960960388183594, 91.07852172851562, 26.68023109436035], "min" : [6.308649602715377E-09, -1.4852813592369785E-06, -1.2967176132860914E-07], "name" : "POSITION"}, {"bufferView" : 1, "byteOffset" : 12, "componentType" : 5126, "count" : 15660, "type" : "VEC3", "max" : [1.0000003576278687, 0.9724233746528625, 0.9996784925460815], "min" : [-0.9999794960021973, -0.9959375262260437, -0.9999621510505676], "name" : "NORMAL"}], "asset" : {"generator" : "Aspose.3D 24.9.1", "version" : "2.0"}, "buffers" : [{"uri" : "data:application/octet-stream;base64,", "byteLength" : 407168}], "bufferViews" : [{"buffer" : 0, "byteOffset" : 0, "byteLength" : 31320, "target" : 34963}, {"buffer" : 0, "byteOffset" : 31324, "byteLength" : 375840, "byteStride" : 24, "target" : 34962}], "meshes" : [{"primitives" : [{"attributes" : {"POSITION" : 1, "NORMAL" : 2}, "indices" : 0, "mode" : 4}], "name" : "Fish"}], "nodes" : [{"mesh" : 0, "name" : "Fish"}], "scene" : 0, "scenes" : [{"nodes" : [0]}]}